<?xml version="1.0" standalone="no"?><!DOCTYPE svg PUBLIC "-//W3C//DTD SVG 1.1//EN" "http://www.w3.org/Graphics/SVG/1.1/DTD/svg11.dtd"><svg t="1712912237777" class="icon" viewBox="0 0 1170 1024" version="1.1" xmlns="http://www.w3.org/2000/svg" p-id="5712" xmlns:xlink="http://www.w3.org/1999/xlink" width="228.515625" height="200"><path d="M1014.259611 573.210032m-155.822472 0a155.822472 155.822472 0 1 0 311.644943 0 155.822472 155.822472 0 1 0-311.644943 0Z" fill="#FBCA97" p-id="5713"></path><path d="M155.822472 573.210032m-155.822472 0a155.822472 155.822472 0 1 0 311.644944 0 155.822472 155.822472 0 1 0-311.644944 0Z" fill="#FBCA97" p-id="5714"></path><path d="M155.822472 573.210032m-89.041413 0a89.041412 89.041412 0 1 0 178.082825 0 89.041412 89.041412 0 1 0-178.082825 0Z" fill="#D84F51" p-id="5715"></path><path d="M1014.259611 573.210032m-89.041413 0a89.041412 89.041412 0 1 0 178.082825 0 89.041412 89.041412 0 1 0-178.082825 0Z" fill="#D84F51" p-id="5716"></path><path d="M584.352087 573.210032m-450.789968 0a450.789968 450.789968 0 1 0 901.579936 0 450.789968 450.789968 0 1 0-901.579936 0Z" fill="#762E33" p-id="5717"></path><path d="M955.817275 489.205113c0-88.827599-82.22314-160.858966-183.641974-160.858965-82.318168 0-152.045101 47.514094-175.30325 112.798459-23.32942-65.355636-92.985082-112.79846-175.303251-112.798459-101.418834 0-183.641974 72.00761-183.641974 160.858965 0 75.903765 60.105329 139.358838 140.855533 156.273856a208.420574 208.420574 0 0 0-43.45164 126.435005c0 126.530033 117.098485 229.089205 261.565089 229.089204s261.565088-102.559172 261.565088-229.089204A208.420574 208.420574 0 0 0 814.866715 645.478969c80.77396-16.915018 140.95056-80.37009 140.95056-156.273856z" fill="#FBCA97" p-id="5718"></path><path d="M380.587894 171.050739s159.172215-93.24641 387.406167-171.050739l-120.875856 126.886388 171.050739-41.313504L788.330093 171.050739h70.107046v68.158968z" fill="#762E33" p-id="5719"></path><path d="M520.778229 935.006102a71.912581 29.387467 0 1 0 143.825163 0 71.912581 29.387467 0 1 0-143.825163 0Z" fill="#D84F51" p-id="5720"></path><path d="M421.901399 511.988121m-128.549382 0a128.549382 128.549382 0 1 0 257.098764 0 128.549382 128.549382 0 1 0-257.098764 0Z" fill="#F2906A" p-id="5721"></path><path d="M421.901399 511.988121m-75.499896 0a75.499896 75.499896 0 1 0 150.999792 0 75.499896 75.499896 0 1 0-150.999792 0Z" fill="#3E1D15" p-id="5722"></path><path d="M421.901399 511.988121m-57.872167 0a57.872167 57.872167 0 1 0 115.744334 0 57.872167 57.872167 0 1 0-115.744334 0Z" fill="#762E33" p-id="5723"></path><path d="M425.393685 491.770874m-45.637288 0a45.637287 45.637287 0 1 0 91.274575 0 45.637287 45.637287 0 1 0-91.274575 0Z" fill="#3E1D15" p-id="5724"></path><path d="M451.526437 489.276384m-28.223372 0a28.223372 28.223372 0 1 0 56.446744 0 28.223372 28.223372 0 1 0-56.446744 0Z" fill="#F9F6EA" p-id="5725"></path><path d="M780.252697 511.988121m-128.549382 0a128.549382 128.549382 0 1 0 257.098764 0 128.549382 128.549382 0 1 0-257.098764 0Z" fill="#F2906A" p-id="5726"></path><path d="M780.252697 511.988121m-75.499896 0a75.499896 75.499896 0 1 0 150.999792 0 75.499896 75.499896 0 1 0-150.999792 0Z" fill="#3E1D15" p-id="5727"></path><path d="M780.252697 511.988121m-57.872167 0a57.872167 57.872167 0 1 0 115.744334 0 57.872167 57.872167 0 1 0-115.744334 0Z" fill="#762E33" p-id="5728"></path><path d="M783.76874 491.770874m-45.637287 0a45.637287 45.637287 0 1 0 91.274574 0 45.637287 45.637287 0 1 0-91.274574 0Z" fill="#3E1D15" p-id="5729"></path><path d="M809.901492 489.276384m-28.223372 0a28.223372 28.223372 0 1 0 56.446744 0 28.223372 28.223372 0 1 0-56.446744 0Z" fill="#F9F6EA" p-id="5730"></path><path d="M543.77505 711.499803a46.563812 11.522168 0 1 0 93.127625 0 46.563812 11.522168 0 1 0-93.127625 0Z" fill="#F2906A" p-id="5731"></path></svg>